<?xml version="1.0" encoding="utf-8"?>
<!-- Generator: Adobe Illustrator 24.0.0, SVG Export Plug-In . SVG Version: 6.00 Build 0)  -->
<svg version="1.1" id="图层_1" xmlns="http://www.w3.org/2000/svg" xmlns:xlink="http://www.w3.org/1999/xlink" x="0px" y="0px"
	 viewBox="0 0 50 50" style="enable-background:new 0 0 50 50;" xml:space="preserve">
<style type="text/css">
	.st0{fill:#4090F7;}
	.st1{fill:#CFD6E2;}
	.st2{fill:none;stroke:#4090F7;stroke-miterlimit:10;}
	.st3{fill:#FFFFFF;}
	.st4{fill:url(#SVGID_1_);}
	.st5{fill:url(#SVGID_2_);}
	.st6{fill:#EFEFEF;}
	.st7{fill:#4090F6;}
	.st8{fill:url(#SVGID_3_);}
	.st9{fill:none;}
	.st10{clip-path:url(#SVGID_5_);fill:#21B1F9;}
	.st11{clip-path:url(#SVGID_5_);fill:#EC6B33;}
	.st12{clip-path:url(#SVGID_5_);fill:#F5AF33;}
	.st13{clip-path:url(#SVGID_7_);fill:#21B1F9;}
	.st14{clip-path:url(#SVGID_7_);fill:#F5AF33;}
	.st15{clip-path:url(#SVGID_7_);fill:url(#SVGID_8_);}
	.st16{fill:#AABBCC;}
	.st17{fill:#76F0D0;}
	.st18{fill:#F5AF33;}
	.st19{opacity:0.5;fill:#4090F7;}
	.st20{opacity:0.4;fill:#4090F7;}
	.st21{opacity:0.3;fill:#4090F7;}
	.st22{opacity:0.6;fill:#4090F7;}
	.st23{opacity:0.7;}
	.st24{opacity:0.7;fill:#4090F7;}
	.st25{opacity:0.7;fill:#21B1F9;}
	.st26{fill:#E8E8E8;}
	.st27{clip-path:url(#SVGID_10_);fill:#21B1F9;}
	.st28{clip-path:url(#SVGID_10_);fill:#EC6B33;}
	.st29{clip-path:url(#SVGID_10_);fill:#F5AF33;}
	.st30{clip-path:url(#SVGID_12_);}
	.st31{fill:#21B1F9;}
	.st32{fill:#EC6B33;}
	.st33{clip-path:url(#SVGID_14_);}
	.st34{clip-path:url(#SVGID_16_);fill:#F5AF33;}
	.st35{clip-path:url(#SVGID_16_);fill:url(#SVGID_17_);}
	.st36{clip-path:url(#SVGID_16_);fill:#21B1F9;}
	.st37{clip-path:url(#SVGID_19_);fill:#F5AF33;}
	.st38{clip-path:url(#SVGID_19_);fill:url(#SVGID_20_);}
	.st39{clip-path:url(#SVGID_19_);fill:#21B1F9;}
	.st40{fill:#92C5FC;}
	.st41{fill:url(#SVGID_21_);}
	.st42{font-family:'Arial-BoldMT';}
	.st43{font-size:16.4044px;}
	.st44{font-family:'ArialMT';}
	.st45{font-size:10.5px;}
	.st46{fill:#87B2EF;}
	.st47{fill:none;stroke:#D9EAFF;stroke-width:0.25;stroke-miterlimit:10;}
	.st48{font-family:'MicrosoftYaHei';}
	.st49{font-size:4.2px;}
	.st50{fill:#4090F7;stroke:#4090F7;stroke-width:0.25;stroke-miterlimit:10;}
	.st51{fill:#FFFFFF;stroke:#B8B8B8;stroke-width:0.5;stroke-miterlimit:10;}
	.st52{fill:#FFFFFF;stroke:#4090F7;stroke-width:10;stroke-miterlimit:10;}
	.st53{fill:#00FF77;}
	.st54{fill:#FDF851;}
	.st55{fill:#FC5F5B;}
	.st56{fill:#D275FF;}
	.st57{fill:#846BFF;}
	.st58{clip-path:url(#SVGID_23_);fill:#21B1F9;}
	.st59{clip-path:url(#SVGID_23_);fill:#F5AF33;}
	.st60{clip-path:url(#SVGID_23_);fill:url(#SVGID_24_);}
	.st61{fill:#70E5C4;}
	.st62{fill:#5090F1;}
	.st63{fill:url(#SVGID_25_);}
	.st64{fill:url(#SVGID_26_);}
</style>
<g>
	<linearGradient id="SVGID_1_" gradientUnits="userSpaceOnUse" x1="4.7699" y1="24.8369" x2="46.7699" y2="24.8369">
		<stop  offset="0" style="stop-color:#2271E5"/>
		<stop  offset="1" style="stop-color:#4993E9"/>
	</linearGradient>
	<rect x="4.8" y="7.1" class="st4" width="42" height="35.5"/>
	<g>
		<text transform="matrix(0.9445 0 0 1 7.7055 30.1338)" class="st3 st42 st43">12</text>
		<text transform="matrix(0.9445 0 0 1 24.9613 29.6905)" class="st3 st44 st45">%</text>
	</g>
	<path class="st46" d="M4.8,37.2c0,0,1.5-2.9,4.6-4.3c2.5-1.2,4.1,0.8,4.7,1.8c1.4,2.3,5.1,2.9,5.1,2.9s1.7-2,3.2-2.1
		c1.5-0.1,3.8,3.3,3.8,3.3s1.6-1.2,3.1-1.6c1.6-0.4,2.7,0.7,3.1,0.8c0.4,0.1,1.6,0.8,1.6,0.8s1.2,0.5,1.8,0.4
		c0.6-0.1,1.2-0.5,1.8-0.4c0.7,0.1,2.5,0.2,3.1,0.7c0.6,0.5,0.5,0.5,0.9,0.6s1.5,0.3,2.1,0.7c0.7,0.4,3.1,1.8,3.1,1.8h-42V37.2z"/>
	<path class="st47" d="M4.8,37.2c0,0,1.5-2.9,4.6-4.3c2.5-1.2,4.1,0.8,4.7,1.8c1.4,2.3,5.1,2.9,5.1,2.9s1.7-2,3.2-2.1
		c1.5-0.1,3.8,3.3,3.8,3.3s1.6-1.2,3.1-1.6c1.6-0.4,2.7,0.7,3.1,0.8c0.4,0.1,1.6,0.8,1.6,0.8s1.2,0.5,1.8,0.4
		c0.6-0.1,1.2-0.5,1.8-0.4c0.7,0.1,2.5,0.2,3.1,0.7c0.6,0.5,0.5,0.5,0.9,0.6s1.5,0.3,2.1,0.7c0.7,0.4,3.1,1.8,3.1,1.8"/>
	<text transform="matrix(0.9445 0 0 1 7.7065 13.9766)" class="st3 st48 st49">标题文本</text>
</g>
</svg>
