<?xml version="1.0" encoding="utf-8"?>
<!-- Generator: Adobe Illustrator 24.0.0, SVG Export Plug-In . SVG Version: 6.00 Build 0)  -->
<svg version="1.1" id="图层_1" xmlns="http://www.w3.org/2000/svg" xmlns:xlink="http://www.w3.org/1999/xlink" x="0px" y="0px"
	 viewBox="0 0 50 50" style="enable-background:new 0 0 50 50;" xml:space="preserve">
<style type="text/css">
	.st0{fill:#FFFFFF;}
	.st1{fill:#4090F7;}
	.st2{fill:#CFD6E2;}
	.st3{fill:none;stroke:#4090F7;stroke-miterlimit:10;}
	.st4{fill:url(#SVGID_1_);}
	.st5{fill:url(#SVGID_2_);}
	.st6{fill:#EFEFEF;}
	.st7{fill:none;stroke:#4090F7;stroke-width:2;stroke-miterlimit:10;}
	.st8{fill:#4090F6;}
	.st9{fill:url(#SVGID_3_);}
	.st10{fill:none;}
	.st11{clip-path:url(#SVGID_5_);fill:#21B1F9;}
	.st12{clip-path:url(#SVGID_5_);fill:#EC6B33;}
	.st13{clip-path:url(#SVGID_5_);fill:#F5AF33;}
	.st14{clip-path:url(#SVGID_7_);fill:#21B1F9;}
	.st15{clip-path:url(#SVGID_7_);fill:#F5AF33;}
	.st16{clip-path:url(#SVGID_7_);fill:url(#SVGID_8_);}
	.st17{fill:#AABBCC;}
	.st18{fill:#76F0D0;}
	.st19{fill:#F5AF33;}
	.st20{opacity:0.5;fill:#4090F7;}
	.st21{opacity:0.4;fill:#4090F7;}
	.st22{opacity:0.3;fill:#4090F7;}
	.st23{opacity:0.6;fill:#4090F7;}
	.st24{opacity:0.7;}
	.st25{opacity:0.7;fill:#4090F7;}
	.st26{opacity:0.7;fill:#21B1F9;}
	.st27{fill:#E8E8E8;}
	.st28{clip-path:url(#SVGID_10_);fill:#21B1F9;}
	.st29{clip-path:url(#SVGID_10_);fill:#EC6B33;}
	.st30{clip-path:url(#SVGID_10_);fill:#F5AF33;}
	.st31{clip-path:url(#SVGID_12_);}
	.st32{fill:#21B1F9;}
	.st33{fill:#EC6B33;}
	.st34{clip-path:url(#SVGID_14_);}
	.st35{clip-path:url(#SVGID_16_);fill:#F5AF33;}
	.st36{clip-path:url(#SVGID_16_);fill:url(#SVGID_17_);}
	.st37{clip-path:url(#SVGID_16_);fill:#21B1F9;}
	.st38{clip-path:url(#SVGID_19_);fill:#F5AF33;}
	.st39{clip-path:url(#SVGID_19_);fill:url(#SVGID_20_);}
	.st40{clip-path:url(#SVGID_19_);fill:#21B1F9;}
	.st41{fill:#92C5FC;}
	.st42{fill:url(#SVGID_21_);}
	.st43{fill:#87B2EF;}
	.st44{fill:none;stroke:#D9EAFF;stroke-width:0.25;stroke-miterlimit:10;}
	.st45{fill:#4090F7;stroke:#4090F7;stroke-width:0.25;stroke-miterlimit:10;}
	.st46{fill:#FFFFFF;stroke:#B8B8B8;stroke-width:0.5;stroke-miterlimit:10;}
	.st47{fill:#FFFFFF;stroke:#4090F7;stroke-width:10;stroke-miterlimit:10;}
	.st48{fill:#00FF77;}
	.st49{fill:#FDF851;}
	.st50{fill:#FC5F5B;}
	.st51{fill:#D275FF;}
	.st52{fill:#846BFF;}
	.st53{clip-path:url(#SVGID_23_);fill:#21B1F9;}
	.st54{clip-path:url(#SVGID_23_);fill:#F5AF33;}
	.st55{clip-path:url(#SVGID_23_);fill:url(#SVGID_24_);}
	.st56{fill:#70E5C4;}
	.st57{fill:#5090F1;}
	.st58{fill:url(#SVGID_25_);}
	.st59{fill:url(#SVGID_26_);}
</style>
<g>
	<g>
		<path class="st2" d="M46,7.2v11.6H4V7.2H46 M47,6.2H3v13.6h44V6.2L47,6.2z"/>
	</g>
	<g>
		<path class="st2" d="M46,19.1V42H4V19.1H46 M47,18.1H3V43h44V18.1L47,18.1z"/>
	</g>
	<g>
		<polygon class="st2" points="34,6.8 32.3,6.8 32.3,43.2 34,43.2 34,6.8 		"/>
	</g>
	<g>
		<rect x="34" y="7.2" class="st1" width="12" height="11.1"/>
	</g>
	<polygon class="st0" points="37.4,11.9 42.3,11.9 39.9,15 	"/>
	<g>
		<rect x="7.1" y="24.3" class="st1" width="22.1" height="1.4"/>
	</g>
	<g>
		<rect x="7.1" y="29.7" class="st1" width="22.1" height="1.4"/>
	</g>
	<g>
		<polygon class="st2" points="47,29.9 32.3,29.9 32.3,31.3 47,31.3 47,29.9 		"/>
	</g>
	<g>
		<rect x="7.1" y="35.2" class="st1" width="22.1" height="1.4"/>
	</g>
	<g>
		<path class="st2" d="M39.9,24.9l0.4,0.5h-0.8L39.9,24.9 M39.9,23.2l-2.4,3.1h4.9L39.9,23.2L39.9,23.2z"/>
	</g>
	<g>
		<path class="st2" d="M40.3,36.1l-0.4,0.5l-0.4-0.5H40.3 M42.3,35.1h-4.9l2.4,3.1L42.3,35.1L42.3,35.1z"/>
	</g>
</g>
</svg>
