<?xml version="1.0" encoding="utf-8"?>
<!-- Generator: Adobe Illustrator 24.0.0, SVG Export Plug-In . SVG Version: 6.00 Build 0)  -->
<svg version="1.1" id="图层_1" xmlns="http://www.w3.org/2000/svg" xmlns:xlink="http://www.w3.org/1999/xlink" x="0px" y="0px"
	 viewBox="0 0 50 50" style="enable-background:new 0 0 50 50;" xml:space="preserve">
<style type="text/css">
	.st0{fill:#FFFFFF;}
	.st1{fill:#4090F7;}
	.st2{fill:#CFD6E2;}
	.st3{fill:none;stroke:#4090F7;stroke-miterlimit:10;}
	.st4{fill:url(#SVGID_1_);}
	.st5{fill:url(#SVGID_2_);}
	.st6{fill:#EFEFEF;}
	.st7{fill:none;stroke:#4090F7;stroke-width:2;stroke-miterlimit:10;}
	.st8{fill:#4090F6;}
	.st9{fill:url(#SVGID_3_);}
	.st10{fill:none;}
	.st11{clip-path:url(#SVGID_5_);fill:#21B1F9;}
	.st12{clip-path:url(#SVGID_5_);fill:#EC6B33;}
	.st13{clip-path:url(#SVGID_5_);fill:#F5AF33;}
	.st14{clip-path:url(#SVGID_7_);fill:#21B1F9;}
	.st15{clip-path:url(#SVGID_7_);fill:#F5AF33;}
	.st16{clip-path:url(#SVGID_7_);fill:url(#SVGID_8_);}
	.st17{fill:#AABBCC;}
	.st18{fill:#76F0D0;}
	.st19{fill:#F5AF33;}
	.st20{opacity:0.5;fill:#4090F7;}
	.st21{opacity:0.4;fill:#4090F7;}
	.st22{opacity:0.3;fill:#4090F7;}
	.st23{opacity:0.6;fill:#4090F7;}
	.st24{opacity:0.7;}
	.st25{opacity:0.7;fill:#4090F7;}
	.st26{opacity:0.7;fill:#21B1F9;}
	.st27{fill:#E8E8E8;}
	.st28{clip-path:url(#SVGID_10_);fill:#21B1F9;}
	.st29{clip-path:url(#SVGID_10_);fill:#EC6B33;}
	.st30{clip-path:url(#SVGID_10_);fill:#F5AF33;}
	.st31{clip-path:url(#SVGID_12_);}
	.st32{fill:#21B1F9;}
	.st33{fill:#EC6B33;}
	.st34{clip-path:url(#SVGID_14_);}
	.st35{clip-path:url(#SVGID_16_);fill:#F5AF33;}
	.st36{clip-path:url(#SVGID_16_);fill:url(#SVGID_17_);}
	.st37{clip-path:url(#SVGID_16_);fill:#21B1F9;}
	.st38{clip-path:url(#SVGID_19_);fill:#F5AF33;}
	.st39{clip-path:url(#SVGID_19_);fill:url(#SVGID_20_);}
	.st40{clip-path:url(#SVGID_19_);fill:#21B1F9;}
	.st41{fill:#92C5FC;}
	.st42{fill:url(#SVGID_21_);}
	.st43{fill:#87B2EF;}
	.st44{fill:none;stroke:#D9EAFF;stroke-width:0.25;stroke-miterlimit:10;}
	.st45{fill:#4090F7;stroke:#4090F7;stroke-width:0.25;stroke-miterlimit:10;}
	.st46{fill:#FFFFFF;stroke:#B8B8B8;stroke-width:0.5;stroke-miterlimit:10;}
	.st47{fill:#FFFFFF;stroke:#4090F7;stroke-width:10;stroke-miterlimit:10;}
	.st48{fill:#00FF77;}
	.st49{fill:#FDF851;}
	.st50{fill:#FC5F5B;}
	.st51{fill:#D275FF;}
	.st52{fill:#846BFF;}
	.st53{clip-path:url(#SVGID_23_);fill:#21B1F9;}
	.st54{clip-path:url(#SVGID_23_);fill:#F5AF33;}
	.st55{clip-path:url(#SVGID_23_);fill:url(#SVGID_24_);}
	.st56{fill:#70E5C4;}
	.st57{fill:#5090F1;}
	.st58{fill:url(#SVGID_25_);}
	.st59{fill:url(#SVGID_26_);}
</style>
<rect x="-44.1" y="-534" class="st0" width="611.6" height="678.6"/>
<g>
	<g>
		<path class="st1" d="M43,6.9H7.6C6.3,6.9,5.3,8,5.3,9.3v30.6c0,1.3,1,2.4,2.3,2.4h23.8c0.6,0,1-0.5,1-1c0-0.6-0.5-1-1-1H7.6
			c-0.2,0-0.3-0.1-0.3-0.3V9.3C7.3,9.1,7.4,9,7.6,9H43c0.2,0,0.3,0.1,0.3,0.3v20.3c0,0.6,0.5,1,1,1s1-0.5,1-1V9.3
			C45.3,8,44.2,6.9,43,6.9z"/>
	</g>
	<g>
		<g>
			<path class="st1" d="M16.6,15c1.1,0,2,1,2,2.1c0,1.2-0.9,2.1-2,2.1c-1.1,0-2-1-2-2.1C14.6,16,15.5,15,16.6,15 M16.6,13
				c-2.2,0-4,1.9-4,4.1c0,2.3,1.8,4.1,4,4.1h0c2.2,0,4-1.9,4-4.1v0C20.6,14.9,18.8,13,16.6,13L16.6,13z"/>
		</g>
	</g>
	<g>
		<path class="st1" d="M10.9,35c0.4,0.4,1,0.4,1.4,0c0,0,0,0,0,0l6.1-6.3l5.1,5.3c0.5,0.5,1.3,0.6,1.9,0.1c0,0,0,0,0.1-0.1
			l14.2-14.8c0.4-0.4,0.4-1.1,0-1.5c-0.4-0.4-1-0.4-1.4,0c0,0,0,0,0,0L24.4,32.1l-5.1-5.3c-0.5-0.5-1.3-0.5-1.9,0c0,0,0,0,0,0
			l-6.5,6.8C10.5,33.9,10.5,34.6,10.9,35L10.9,35z"/>
	</g>
	<path class="st1" d="M39.6,30.9c-0.2-0.2-0.4-0.3-0.7-0.4c-0.3-0.1-0.6,0-0.9,0.1c-0.1,0.1-0.2,0.2-0.3,0.3l-4.1,4.3
		c-0.4,0.4-0.4,1.1,0,1.5c0.4,0.4,1,0.4,1.4,0c0,0,0,0,0,0l2.6-2.7v10.8c0,0.6,0.5,1,1,1s1-0.5,1-1V33.8l2.7,2.8
		c0.4,0.4,1,0.4,1.4,0c0,0,0,0,0,0c0.4-0.4,0.4-1.1,0-1.5L39.6,30.9L39.6,30.9z"/>
</g>
</svg>
