<?xml version="1.0" encoding="utf-8"?>
<!-- Generator: Adobe Illustrator 24.0.0, SVG Export Plug-In . SVG Version: 6.00 Build 0)  -->
<svg version="1.1" id="图层_1" xmlns="http://www.w3.org/2000/svg" xmlns:xlink="http://www.w3.org/1999/xlink" x="0px" y="0px"
	 viewBox="0 0 50 50" style="enable-background:new 0 0 50 50;" xml:space="preserve">
<style type="text/css">
	.st0{fill:#4090F7;}
</style>
<g>
	<g>
		<path class="st0" d="M15.6,27.8h-1.1c-0.8,0-1.5-0.5-1.5-1.2s0.6-1.2,1.5-1.2h1.1c0.8,0,1.5,0.5,1.5,1.2
			C17.1,27.2,16.4,27.8,15.6,27.8z"/>
		<path class="st0" d="M35.6,27.8H20.9c-0.8,0-1.5-0.5-1.5-1.2c0-0.6,0.6-1.2,1.5-1.2h14.7c0.8,0,1.5,0.5,1.5,1.2
			C37,27.2,36.4,27.8,35.6,27.8z"/>
	</g>
	<g>
		<path class="st0" d="M33,34.7c0-0.6,0.6-1.2,1.5-1.2h1.1c0.8,0,1.5,0.5,1.5,1.2s-0.6,1.2-1.5,1.2h-1.1C33.7,35.9,33,35.3,33,34.7z
			"/>
		<path class="st0" d="M13,34.7c0-0.6,0.6-1.2,1.5-1.2h14.7c0.8,0,1.5,0.5,1.5,1.2c0,0.6-0.6,1.2-1.5,1.2H14.5
			C13.7,35.9,13,35.3,13,34.7z"/>
	</g>
	<path class="st0" d="M33.9,13.6c-0.6,0-1.2-0.5-1.2-1.2v-5c0.1-0.6,0.5-1.2,1.2-1.2s1.2,0.5,1.2,1.2v5C35,13.1,34.5,13.6,33.9,13.6
		z"/>
	<path class="st0" d="M16.2,13.6c-0.6,0-1.2-0.5-1.2-1.2v-5c0-0.6,0.5-1.2,1.2-1.2c0.6,0,1.2,0.5,1.2,1.2v5
		C17.3,13.1,16.9,13.6,16.2,13.6z"/>
	<path class="st0" d="M35.7,9.4V13c0.1,0.9-0.7,1.6-1.8,1.6c-1,0-1.8-0.7-1.8-1.7V9.4H18V13c0,0.9-0.8,1.6-1.8,1.6s-1.8-0.7-1.8-1.7
		V9.4H5v34.4h40V9.4H35.7z M44.1,42.8H6V18.7h38.1V42.8z"/>
</g>
</svg>
