<?xml version="1.0" encoding="utf-8"?>
<!-- Generator: Adobe Illustrator 24.0.0, SVG Export Plug-In . SVG Version: 6.00 Build 0)  -->
<svg version="1.1" id="图层_1" xmlns="http://www.w3.org/2000/svg" xmlns:xlink="http://www.w3.org/1999/xlink" x="0px" y="0px"
	 viewBox="0 0 50 50" style="enable-background:new 0 0 50 50;" xml:space="preserve">
<style type="text/css">
	.st0{fill:#FFFFFF;stroke:#B8B8B8;stroke-width:0.5;stroke-miterlimit:10;}
	.st1{fill:#4090F7;}
	.st2{fill:#CFD6E2;}
	.st3{fill:none;stroke:#4090F7;stroke-miterlimit:10;}
	.st4{fill:#FFFFFF;}
	.st5{fill:url(#SVGID_1_);}
	.st6{fill:url(#SVGID_2_);}
	.st7{fill:#EFEFEF;}
	.st8{fill:url(#SVGID_3_);}
	.st9{fill:none;}
	.st10{clip-path:url(#SVGID_5_);fill:#21B1F9;}
	.st11{clip-path:url(#SVGID_5_);fill:#EC6B33;}
	.st12{clip-path:url(#SVGID_5_);fill:#F5AF33;}
	.st13{clip-path:url(#SVGID_7_);fill:#21B1F9;}
	.st14{clip-path:url(#SVGID_7_);fill:#F5AF33;}
	.st15{clip-path:url(#SVGID_7_);fill:url(#SVGID_8_);}
	.st16{fill:#AABBCC;}
	.st17{fill:#76F0D0;}
	.st18{fill:#F5AF33;}
	.st19{opacity:0.5;fill:#4090F7;}
	.st20{opacity:0.4;fill:#4090F7;}
	.st21{opacity:0.3;fill:#4090F7;}
	.st22{opacity:0.6;fill:#4090F7;}
	.st23{opacity:0.7;}
	.st24{opacity:0.7;fill:#4090F7;}
	.st25{opacity:0.7;fill:#21B1F9;}
	.st26{fill:#E8E8E8;}
	.st27{clip-path:url(#SVGID_10_);fill:#21B1F9;}
	.st28{clip-path:url(#SVGID_10_);fill:#EC6B33;}
	.st29{clip-path:url(#SVGID_10_);fill:#F5AF33;}
	.st30{clip-path:url(#SVGID_12_);}
	.st31{fill:#21B1F9;}
	.st32{fill:#EC6B33;}
	.st33{clip-path:url(#SVGID_14_);}
	.st34{clip-path:url(#SVGID_16_);fill:#F5AF33;}
	.st35{clip-path:url(#SVGID_16_);fill:url(#SVGID_17_);}
	.st36{clip-path:url(#SVGID_16_);fill:#21B1F9;}
	.st37{clip-path:url(#SVGID_19_);fill:#F5AF33;}
	.st38{clip-path:url(#SVGID_19_);fill:url(#SVGID_20_);}
	.st39{clip-path:url(#SVGID_19_);fill:#21B1F9;}
	.st40{fill:#92C5FC;}
	.st41{fill:url(#SVGID_21_);}
	.st42{fill:#87B2EF;}
	.st43{fill:none;stroke:#D9EAFF;stroke-width:0.25;stroke-miterlimit:10;}
	.st44{fill:#4090F7;stroke:#4090F7;stroke-width:0.25;stroke-miterlimit:10;}
	.st45{fill:#FFFFFF;stroke:#4090F7;stroke-width:10;stroke-miterlimit:10;}
	.st46{fill:#00FF77;}
	.st47{fill:#FDF851;}
	.st48{fill:#FC5F5B;}
	.st49{fill:#D275FF;}
	.st50{fill:#846BFF;}
	.st51{clip-path:url(#SVGID_23_);fill:#21B1F9;}
	.st52{clip-path:url(#SVGID_23_);fill:#F5AF33;}
	.st53{clip-path:url(#SVGID_23_);fill:url(#SVGID_24_);}
	.st54{fill:#70E5C4;}
	.st55{fill:#5090F1;}
	.st56{fill:url(#SVGID_25_);}
	.st57{fill:url(#SVGID_26_);}
	.st58{fill:#4090F6;}
	.st59{fill:none;stroke:#4090F7;stroke-width:2;stroke-miterlimit:10;}
	.st60{display:none;opacity:0.11;fill:#F442C6;}
	.st61{fill:none;stroke:#4090F7;stroke-width:1.8;stroke-miterlimit:10;}
</style>
<g>
	<path class="st61" d="M24.9,42.5H8.9c-0.8,0-1.4-0.6-1.4-1.4V8.9c0-0.8,0.6-1.4,1.4-1.4h15.9V42.5z"/>
	<path class="st61" d="M41.1,42.5H25.1V7.5h15.9c0.8,0,1.4,0.6,1.4,1.4v32.1C42.5,41.8,41.8,42.5,41.1,42.5z"/>
	<path class="st1" d="M18.9,20.1c0.3,0.3,0.3,0.7,0.1,1.1l-0.1,0.1l-3.6,3.6l3.7,3.7c0.3,0.3,0.3,0.7,0.1,1.1L19,29.9
		c-0.3,0.3-0.8,0.3-1.1,0.1l-0.1-0.1l-4.4-4.3c-0.3-0.3-0.3-0.7-0.1-1.1l0.1-0.1l4.3-4.2C18,19.8,18.5,19.8,18.9,20.1
		C18.9,20.1,18.9,20.1,18.9,20.1z"/>
	<path class="st1" d="M31.4,20.1c0.3-0.3,0.9-0.3,1.2,0l4.3,4.2l0.1,0.1c0.2,0.3,0.2,0.8-0.1,1.1l-4.4,4.3L32.4,30
		c-0.3,0.2-0.8,0.2-1.1-0.1l-0.1-0.1C31,29.4,31,29,31.3,28.7l3.7-3.7l-3.6-3.6l-0.1-0.1C31.1,20.9,31.1,20.4,31.4,20.1
		C31.4,20.1,31.4,20.1,31.4,20.1z"/>
</g>
</svg>
