<?xml version="1.0" encoding="utf-8"?>
<!-- Generator: Adobe Illustrator 24.0.0, SVG Export Plug-In . SVG Version: 6.00 Build 0)  -->
<svg version="1.1" id="图层_1" xmlns="http://www.w3.org/2000/svg" xmlns:xlink="http://www.w3.org/1999/xlink" x="0px" y="0px"
	 viewBox="0 0 50 50" style="enable-background:new 0 0 50 50;" xml:space="preserve">
<style type="text/css">
	.st0{fill:#FFFFFF;stroke:#B8B8B8;stroke-width:0.5;stroke-miterlimit:10;}
	.st1{fill:#4090F7;}
	.st2{fill:#CFD6E2;}
	.st3{fill:none;stroke:#4090F7;stroke-miterlimit:10;}
	.st4{fill:#FFFFFF;}
	.st5{fill:url(#SVGID_1_);}
	.st6{fill:url(#SVGID_2_);}
	.st7{fill:#EFEFEF;}
	.st8{fill:url(#SVGID_3_);}
	.st9{fill:none;}
	.st10{clip-path:url(#SVGID_5_);fill:#21B1F9;}
	.st11{clip-path:url(#SVGID_5_);fill:#EC6B33;}
	.st12{clip-path:url(#SVGID_5_);fill:#F5AF33;}
	.st13{clip-path:url(#SVGID_7_);fill:#21B1F9;}
	.st14{clip-path:url(#SVGID_7_);fill:#F5AF33;}
	.st15{clip-path:url(#SVGID_7_);fill:url(#SVGID_8_);}
	.st16{fill:#AABBCC;}
	.st17{fill:#76F0D0;}
	.st18{fill:#F5AF33;}
	.st19{opacity:0.5;fill:#4090F7;}
	.st20{opacity:0.4;fill:#4090F7;}
	.st21{opacity:0.3;fill:#4090F7;}
	.st22{opacity:0.6;fill:#4090F7;}
	.st23{opacity:0.7;}
	.st24{opacity:0.7;fill:#4090F7;}
	.st25{opacity:0.7;fill:#21B1F9;}
	.st26{fill:#E8E8E8;}
	.st27{clip-path:url(#SVGID_10_);fill:#21B1F9;}
	.st28{clip-path:url(#SVGID_10_);fill:#EC6B33;}
	.st29{clip-path:url(#SVGID_10_);fill:#F5AF33;}
	.st30{clip-path:url(#SVGID_12_);}
	.st31{fill:#21B1F9;}
	.st32{fill:#EC6B33;}
	.st33{clip-path:url(#SVGID_14_);}
	.st34{clip-path:url(#SVGID_16_);fill:#F5AF33;}
	.st35{clip-path:url(#SVGID_16_);fill:url(#SVGID_17_);}
	.st36{clip-path:url(#SVGID_16_);fill:#21B1F9;}
	.st37{clip-path:url(#SVGID_19_);fill:#F5AF33;}
	.st38{clip-path:url(#SVGID_19_);fill:url(#SVGID_20_);}
	.st39{clip-path:url(#SVGID_19_);fill:#21B1F9;}
	.st40{fill:#92C5FC;}
	.st41{fill:url(#SVGID_21_);}
	.st42{fill:#87B2EF;}
	.st43{fill:none;stroke:#D9EAFF;stroke-width:0.25;stroke-miterlimit:10;}
	.st44{fill:#4090F7;stroke:#4090F7;stroke-width:0.25;stroke-miterlimit:10;}
	.st45{fill:#FFFFFF;stroke:#4090F7;stroke-width:10;stroke-miterlimit:10;}
	.st46{fill:#00FF77;}
	.st47{fill:#FDF851;}
	.st48{fill:#FC5F5B;}
	.st49{fill:#D275FF;}
	.st50{fill:#846BFF;}
	.st51{clip-path:url(#SVGID_23_);fill:#21B1F9;}
	.st52{clip-path:url(#SVGID_23_);fill:#F5AF33;}
	.st53{clip-path:url(#SVGID_23_);fill:url(#SVGID_24_);}
	.st54{fill:#70E5C4;}
	.st55{fill:#5090F1;}
	.st56{fill:url(#SVGID_25_);}
	.st57{fill:url(#SVGID_26_);}
	.st58{fill:#4090F6;}
</style>
<g>
	<g>
		<path class="st2" d="M46,7.2v11.6H4V7.2H46 M47,6.2H3v13.6h44V6.2L47,6.2z"/>
	</g>
	<g>
		<path class="st2" d="M46,19.1V42H4V19.1H46 M47,18.1H3V43h44V18.1L47,18.1z"/>
	</g>
	<g>
		<polygon class="st2" points="34,6.8 32.3,6.8 32.3,43.2 34,43.2 34,6.8 		"/>
	</g>
	<g>
		<rect x="34" y="7.2" class="st1" width="12" height="11.1"/>
	</g>
	<polygon class="st4" points="37.4,11.9 42.3,11.9 39.9,15 	"/>
	<g>
		<polygon class="st2" points="29.2,24.3 7.1,24.3 7.1,25.7 29.2,25.7 29.2,24.3 		"/>
	</g>
	<g>
		<polygon class="st2" points="29.2,29.7 7.1,29.7 7.1,31.2 29.2,31.2 29.2,29.7 		"/>
	</g>
	<g>
		<polygon class="st2" points="47,29.9 32.3,29.9 32.3,31.3 47,31.3 47,29.9 		"/>
	</g>
	<g>
		<polygon class="st2" points="29.2,35.2 7.1,35.2 7.1,36.7 29.2,36.7 29.2,35.2 		"/>
	</g>
	<g>
		<polygon class="st2" points="42.3,26.4 37.4,26.4 39.9,23.2 		"/>
	</g>
	<g>
		<polygon class="st2" points="37.4,35.1 42.3,35.1 39.9,38.2 		"/>
	</g>
</g>
</svg>
