<?xml version="1.0" encoding="utf-8"?>
<!-- Generator: Adobe Illustrator 24.0.0, SVG Export Plug-In . SVG Version: 6.00 Build 0)  -->
<svg version="1.1" id="图层_1" xmlns="http://www.w3.org/2000/svg" xmlns:xlink="http://www.w3.org/1999/xlink" x="0px" y="0px"
	 viewBox="0 0 50 50" style="enable-background:new 0 0 50 50;" xml:space="preserve">
<style type="text/css">
	.st0{fill:#4090F7;}
</style>
<g>
	<g>
		<g>
			<path class="st0" d="M44,8.6v31.7H6V8.6H44 M45,7.6H5v33.7h40V7.6L45,7.6z"/>
		</g>
	</g>
	<g>
		<path class="st0" d="M39,15.6H26.7c-0.8,0-1.4-0.5-1.4-1.2c0-0.6,0.6-1.2,1.4-1.2H39c0.8,0,1.4,0.5,1.4,1.2S39.8,15.6,39,15.6z"/>
	</g>
	<g>
		<path class="st0" d="M39,25.3H26.7c-0.8,0-1.4-0.5-1.4-1.2s0.6-1.2,1.4-1.2H39c0.8,0,1.4,0.5,1.4,1.2S39.8,25.3,39,25.3z"/>
	</g>
	<g>
		<path class="st0" d="M39,35H12.1c-0.8,0-1.4-0.5-1.4-1.2s0.6-1.2,1.4-1.2H39c0.8,0,1.4,0.5,1.4,1.2S39.8,35,39,35z"/>
	</g>
	<g>
		<path class="st0" d="M14.1,29.3V15.2H8.8v-1.9h12.7v1.9h-5.3v14.2h-2.1V29.3z"/>
	</g>
</g>
</svg>
