<?xml version="1.0" encoding="utf-8"?>
<!-- Generator: Adobe Illustrator 24.2.0, SVG Export Plug-In . SVG Version: 6.00 Build 0)  -->
<svg version="1.1" id="图层_1" xmlns="http://www.w3.org/2000/svg" xmlns:xlink="http://www.w3.org/1999/xlink" x="0px" y="0px"
	 viewBox="0 0 50 50" style="enable-background:new 0 0 50 50;" xml:space="preserve">
<style type="text/css">
	.st0{fill:#FFFFFF;stroke:#B8B8B8;stroke-width:0.5;stroke-miterlimit:10;}
	.st1{fill:#4090F7;}
	.st2{fill:#CFD6E2;}
	.st3{fill:none;stroke:#4090F7;stroke-miterlimit:10;}
	.st4{fill:#FFFFFF;}
	.st5{fill:url(#SVGID_1_);}
	.st6{fill:url(#SVGID_2_);}
	.st7{fill:#EFEFEF;}
	.st8{fill:url(#SVGID_3_);}
	.st9{fill:none;}
	.st10{clip-path:url(#SVGID_5_);fill:#21B1F9;}
	.st11{clip-path:url(#SVGID_5_);fill:#EC6B33;}
	.st12{clip-path:url(#SVGID_5_);fill:#F5AF33;}
	.st13{clip-path:url(#SVGID_7_);fill:#21B1F9;}
	.st14{clip-path:url(#SVGID_7_);fill:#F5AF33;}
	.st15{clip-path:url(#SVGID_7_);fill:url(#SVGID_8_);}
	.st16{fill:#AABBCC;}
	.st17{fill:#76F0D0;}
	.st18{fill:#F5AF33;}
	.st19{opacity:0.5;fill:#4090F7;}
	.st20{opacity:0.4;fill:#4090F7;}
	.st21{opacity:0.3;fill:#4090F7;}
	.st22{opacity:0.6;fill:#4090F7;}
	.st23{opacity:0.7;}
	.st24{opacity:0.7;fill:#4090F7;}
	.st25{opacity:0.7;fill:#21B1F9;}
	.st26{fill:#E8E8E8;}
	.st27{clip-path:url(#SVGID_10_);fill:#21B1F9;}
	.st28{clip-path:url(#SVGID_10_);fill:#EC6B33;}
	.st29{clip-path:url(#SVGID_10_);fill:#F5AF33;}
	.st30{clip-path:url(#SVGID_12_);}
	.st31{fill:#21B1F9;}
	.st32{fill:#EC6B33;}
	.st33{clip-path:url(#SVGID_14_);}
	.st34{clip-path:url(#SVGID_16_);fill:#F5AF33;}
	.st35{clip-path:url(#SVGID_16_);fill:url(#SVGID_17_);}
	.st36{clip-path:url(#SVGID_16_);fill:#21B1F9;}
	.st37{clip-path:url(#SVGID_19_);fill:#F5AF33;}
	.st38{clip-path:url(#SVGID_19_);fill:url(#SVGID_20_);}
	.st39{clip-path:url(#SVGID_19_);fill:#21B1F9;}
	.st40{fill:#92C5FC;}
	.st41{fill:url(#SVGID_21_);}
	.st42{fill:#87B2EF;}
	.st43{fill:none;stroke:#D9EAFF;stroke-width:0.25;stroke-miterlimit:10;}
	.st44{fill:#4090F7;stroke:#4090F7;stroke-width:0.25;stroke-miterlimit:10;}
	.st45{fill:#FFFFFF;stroke:#4090F7;stroke-width:10;stroke-miterlimit:10;}
	.st46{fill:#00FF77;}
	.st47{fill:#FDF851;}
	.st48{fill:#FC5F5B;}
	.st49{fill:#D275FF;}
	.st50{fill:#846BFF;}
	.st51{clip-path:url(#SVGID_23_);fill:#21B1F9;}
	.st52{clip-path:url(#SVGID_23_);fill:#F5AF33;}
	.st53{clip-path:url(#SVGID_23_);fill:url(#SVGID_24_);}
	.st54{fill:#70E5C4;}
	.st55{fill:#5090F1;}
	.st56{fill:url(#SVGID_25_);}
	.st57{fill:url(#SVGID_26_);}
	.st58{fill:#4090F6;}
	.st59{fill:none;stroke:#4090F7;stroke-width:2;stroke-miterlimit:10;}
	.st60{display:none;opacity:0.11;fill:#F442C6;}
	.st61{fill:none;stroke:#4090F7;stroke-width:1.8;stroke-miterlimit:10;}
	.st62{fill:#4090F7;stroke:#FFFFFF;stroke-miterlimit:10;}
	.st63{fill:none;stroke:#4090F7;stroke-width:1.5;stroke-miterlimit:10;}
</style>
<g>
	<g>
		<path class="st1" d="M32.2,17.9H5.8c-1,0-1.8-0.8-1.8-1.8V9.4c0-1,0.8-1.8,1.8-1.8h26.4c1,0,1.8,0.8,1.8,1.8v6.7
			C34,17.1,33.2,17.9,32.2,17.9z M5.8,9.2c-0.1,0-0.3,0.1-0.3,0.3v6.7c0,0.1,0.1,0.3,0.3,0.3h26.4c0.1,0,0.3-0.1,0.3-0.3V9.4
			c0-0.1-0.1-0.3-0.3-0.3H5.8z"/>
	</g>
	<g>
		<path class="st1" d="M44.2,29.1H28c-1,0-1.8-0.8-1.8-1.8v-4.7c0-1,0.8-1.8,1.8-1.8h16.2c1,0,1.8,0.8,1.8,1.8v4.7
			C45.9,28.3,45.1,29.1,44.2,29.1z M28,22.3c-0.1,0-0.3,0.1-0.3,0.3v4.7c0,0.1,0.1,0.3,0.3,0.3h16.2c0.1,0,0.3-0.1,0.3-0.3v-4.7
			c0-0.1-0.1-0.3-0.3-0.3H28z"/>
	</g>
	<g>
		<path class="st1" d="M44.2,42.3H28c-1,0-1.8-0.8-1.8-1.8v-4.7c0-1,0.8-1.8,1.8-1.8h16.2c1,0,1.8,0.8,1.8,1.8v4.7
			C45.9,41.5,45.2,42.3,44.2,42.3z M28,35.6c-0.1,0-0.3,0.1-0.3,0.3v4.7c0,0.1,0.1,0.3,0.3,0.3h16.2c0.1,0,0.3-0.1,0.3-0.3v-4.7
			c0-0.1-0.1-0.3-0.3-0.3H28z"/>
	</g>
	<g>
		<polygon class="st1" points="27,38.9 13.4,38.9 13.4,17.2 14.9,17.2 14.9,37.4 27,37.4 		"/>
	</g>
	<g>
		<rect x="14.1" y="24.2" class="st1" width="12.9" height="1.5"/>
	</g>
</g>
</svg>
