<?xml version="1.0" encoding="utf-8"?>
<!-- Generator: Adobe Illustrator 24.0.0, SVG Export Plug-In . SVG Version: 6.00 Build 0)  -->
<svg version="1.1" id="图层_1" xmlns="http://www.w3.org/2000/svg" xmlns:xlink="http://www.w3.org/1999/xlink" x="0px" y="0px"
	 viewBox="0 0 50 50" style="enable-background:new 0 0 50 50;" xml:space="preserve">
<style type="text/css">
	.st0{fill:#4090F7;}
	.st1{fill:#CFD6E2;}
	.st2{fill:none;stroke:#4090F7;stroke-miterlimit:10;}
	.st3{fill:#FFFFFF;}
	.st4{fill:url(#SVGID_1_);}
	.st5{fill:url(#SVGID_2_);}
	.st6{fill:#EFEFEF;}
	.st7{fill:#4090F6;}
	.st8{fill:url(#SVGID_3_);}
	.st9{fill:none;}
	.st10{clip-path:url(#SVGID_5_);fill:#21B1F9;}
	.st11{clip-path:url(#SVGID_5_);fill:#EC6B33;}
	.st12{clip-path:url(#SVGID_5_);fill:#F5AF33;}
	.st13{clip-path:url(#SVGID_7_);fill:#21B1F9;}
	.st14{clip-path:url(#SVGID_7_);fill:#F5AF33;}
	.st15{clip-path:url(#SVGID_7_);fill:url(#SVGID_8_);}
	.st16{fill:#AABBCC;}
	.st17{fill:#76F0D0;}
	.st18{fill:#F5AF33;}
	.st19{opacity:0.5;fill:#4090F7;}
	.st20{opacity:0.4;fill:#4090F7;}
	.st21{opacity:0.3;fill:#4090F7;}
	.st22{opacity:0.6;fill:#4090F7;}
	.st23{opacity:0.7;}
	.st24{opacity:0.7;fill:#4090F7;}
	.st25{opacity:0.7;fill:#21B1F9;}
	.st26{fill:#E8E8E8;}
	.st27{clip-path:url(#SVGID_10_);fill:#21B1F9;}
	.st28{clip-path:url(#SVGID_10_);fill:#EC6B33;}
	.st29{clip-path:url(#SVGID_10_);fill:#F5AF33;}
	.st30{clip-path:url(#SVGID_12_);}
	.st31{fill:#21B1F9;}
	.st32{fill:#EC6B33;}
	.st33{clip-path:url(#SVGID_14_);}
	.st34{clip-path:url(#SVGID_16_);fill:#F5AF33;}
	.st35{clip-path:url(#SVGID_16_);fill:url(#SVGID_17_);}
	.st36{clip-path:url(#SVGID_16_);fill:#21B1F9;}
	.st37{clip-path:url(#SVGID_19_);fill:#F5AF33;}
	.st38{clip-path:url(#SVGID_19_);fill:url(#SVGID_20_);}
	.st39{clip-path:url(#SVGID_19_);fill:#21B1F9;}
	.st40{fill:#92C5FC;}
	.st41{fill:url(#SVGID_21_);}
	.st42{fill:#87B2EF;}
	.st43{fill:none;stroke:#D9EAFF;stroke-width:0.25;stroke-miterlimit:10;}
	.st44{fill:#4090F7;stroke:#4090F7;stroke-width:0.25;stroke-miterlimit:10;}
	.st45{fill:#FFFFFF;stroke:#B8B8B8;stroke-width:0.5;stroke-miterlimit:10;}
	.st46{fill:#FFFFFF;stroke:#4090F7;stroke-width:10;stroke-miterlimit:10;}
	.st47{fill:#00FF77;}
	.st48{fill:#FDF851;}
	.st49{fill:#FC5F5B;}
	.st50{fill:#D275FF;}
	.st51{fill:#846BFF;}
	.st52{clip-path:url(#SVGID_23_);fill:#21B1F9;}
	.st53{clip-path:url(#SVGID_23_);fill:#F5AF33;}
	.st54{clip-path:url(#SVGID_23_);fill:url(#SVGID_24_);}
	.st55{fill:#70E5C4;}
	.st56{fill:#5090F1;}
	.st57{fill:url(#SVGID_25_);}
	.st58{fill:url(#SVGID_26_);}
</style>
<g>
	<g>
		<path class="st9" d="M25,49c-12.3,0-22.3-10-22.3-22.3S12.7,4.3,25,4.3s22.3,10,22.3,22.3S37.3,49,25,49z M25,5.3
			c-11.7,0-21.3,9.6-21.3,21.3S13.3,47.9,25,47.9s21.3-9.6,21.3-21.3S36.7,5.3,25,5.3z"/>
	</g>
	<g>
		<rect x="24.6" y="7.5" class="st1" width="0.7" height="4.5"/>
		<rect x="17.6" y="9" transform="matrix(0.8121 -0.5835 0.5835 0.8121 -3.1475 12.5923)" class="st1" width="0.7" height="4.5"/>
		<rect x="12.2" y="13.2" transform="matrix(0.6478 -0.7618 0.7618 0.6478 -7.3181 15.007)" class="st1" width="0.7" height="4.5"/>
		<rect x="9" y="19.6" transform="matrix(0.3445 -0.9388 0.9388 0.3445 -14.3343 23.0404)" class="st1" width="0.7" height="4.5"/>
		
			<rect x="8.2" y="25.9" transform="matrix(6.123234e-17 -1 1 6.123234e-17 -19.4893 36.7247)" class="st1" width="0.7" height="4.5"/>
		
			<rect x="9.8" y="32" transform="matrix(-0.3785 -0.9256 0.9256 -0.3785 -17.6372 56.5742)" class="st1" width="0.7" height="4.5"/>
		<rect x="31.4" y="9" transform="matrix(0.9171 0.3988 -0.3988 0.9171 7.0927 -11.7312)" class="st1" width="0.7" height="4.5"/>
		<rect x="37" y="13.4" transform="matrix(0.7071 0.7071 -0.7071 0.7071 21.9819 -21.8725)" class="st1" width="0.7" height="4.5"/>
		
			<rect x="40.4" y="19.4" transform="matrix(0.3043 0.9526 -0.9526 0.3043 49.0129 -23.7609)" class="st1" width="0.7" height="4.6"/>
		
			<rect x="41" y="26.2" transform="matrix(-3.814876e-02 0.9993 -0.9993 -3.814876e-02 71.3958 -11.7724)" class="st1" width="0.7" height="4.5"/>
		
			<rect x="39.3" y="31.7" transform="matrix(-0.3445 0.9388 -0.9388 -0.3445 85.1404 8.4083)" class="st1" width="0.7" height="4.5"/>
	</g>
	<path class="st16" d="M27.1,28.8c0,1-1,1.9-2.1,1.9c-1.2,0-2.1-0.8-2.1-1.9S25,13.3,25,13.3S27.1,27.7,27.1,28.8z"/>
	<g>
		<defs>
			<path id="SVGID_22_" d="M25,49c-12.3,0-22.3-10-22.3-22.3S12.7,4.3,25,4.3s22.3,10,22.3,22.3S37.3,49,25,49z M25,6.6
				c-11.1,0-20,9-20,20s9,20,20,20s20-9,20-20S36.1,6.6,25,6.6z"/>
		</defs>
		<clipPath id="SVGID_1_">
			<use xlink:href="#SVGID_22_"  style="overflow:visible;"/>
		</clipPath>
		<polygon style="clip-path:url(#SVGID_1_);fill:#21B1F9;" points="50.2,22.1 24.8,28.5 -3.3,22.1 -3.3,0.1 50.2,0.1 		"/>
		<polygon style="clip-path:url(#SVGID_1_);fill:#F5AF33;" points="84.8,43.3 48.2,39.9 24.9,28.5 53.6,18.9 84.8,21.2 		"/>
		<linearGradient id="SVGID_2_" gradientUnits="userSpaceOnUse" x1="-9.2969" y1="30.3104" x2="24.8603" y2="30.3104">
			<stop  offset="0" style="stop-color:#6BDBBA"/>
			<stop  offset="1" style="stop-color:#79F6D6"/>
		</linearGradient>
		<polygon style="clip-path:url(#SVGID_1_);fill:url(#SVGID_2_);" points="24.9,28.5 -7.7,43.2 -9.3,17.5 		"/>
	</g>
</g>
</svg>
