<?xml version="1.0" encoding="utf-8"?>
<!-- Generator: Adobe Illustrator 24.0.0, SVG Export Plug-In . SVG Version: 6.00 Build 0)  -->
<svg version="1.1" id="图层_1" xmlns="http://www.w3.org/2000/svg" xmlns:xlink="http://www.w3.org/1999/xlink" x="0px" y="0px"
	 viewBox="0 0 50 50" style="enable-background:new 0 0 50 50;" xml:space="preserve">
<style type="text/css">
	.st0{fill:#4090F7;}
	.st1{fill:#CFD6E2;}
	.st2{fill:none;stroke:#4090F7;stroke-miterlimit:10;}
	.st3{fill:#FFFFFF;}
	.st4{fill:url(#SVGID_1_);}
	.st5{fill:url(#SVGID_2_);}
	.st6{fill:#EFEFEF;}
	.st7{fill:#4090F6;}
	.st8{fill:url(#SVGID_3_);}
	.st9{fill:none;}
	.st10{clip-path:url(#SVGID_5_);fill:#21B1F9;}
	.st11{clip-path:url(#SVGID_5_);fill:#EC6B33;}
	.st12{clip-path:url(#SVGID_5_);fill:#F5AF33;}
	.st13{clip-path:url(#SVGID_7_);fill:#21B1F9;}
	.st14{clip-path:url(#SVGID_7_);fill:#F5AF33;}
	.st15{clip-path:url(#SVGID_7_);fill:url(#SVGID_8_);}
	.st16{fill:#AABBCC;}
	.st17{fill:#76F0D0;}
	.st18{fill:#F5AF33;}
	.st19{opacity:0.5;fill:#4090F7;}
	.st20{opacity:0.4;fill:#4090F7;}
	.st21{opacity:0.3;fill:#4090F7;}
	.st22{opacity:0.6;fill:#4090F7;}
	.st23{opacity:0.7;}
	.st24{opacity:0.7;fill:#4090F7;}
	.st25{opacity:0.7;fill:#21B1F9;}
	.st26{fill:#E8E8E8;}
	.st27{clip-path:url(#SVGID_10_);fill:#21B1F9;}
	.st28{clip-path:url(#SVGID_10_);fill:#EC6B33;}
	.st29{clip-path:url(#SVGID_10_);fill:#F5AF33;}
	.st30{clip-path:url(#SVGID_12_);}
	.st31{fill:#21B1F9;}
	.st32{fill:#EC6B33;}
	.st33{clip-path:url(#SVGID_14_);}
	.st34{clip-path:url(#SVGID_16_);fill:#F5AF33;}
	.st35{clip-path:url(#SVGID_16_);fill:url(#SVGID_17_);}
	.st36{clip-path:url(#SVGID_16_);fill:#21B1F9;}
	.st37{clip-path:url(#SVGID_19_);fill:#F5AF33;}
	.st38{clip-path:url(#SVGID_19_);fill:url(#SVGID_20_);}
	.st39{clip-path:url(#SVGID_19_);fill:#21B1F9;}
	.st40{fill:#92C5FC;}
	.st41{fill:url(#SVGID_21_);}
	.st42{fill:#87B2EF;}
	.st43{fill:none;stroke:#D9EAFF;stroke-width:0.25;stroke-miterlimit:10;}
	.st44{fill:#4090F7;stroke:#4090F7;stroke-width:0.25;stroke-miterlimit:10;}
	.st45{fill:#FFFFFF;stroke:#B8B8B8;stroke-width:0.5;stroke-miterlimit:10;}
	.st46{fill:#FFFFFF;stroke:#4090F7;stroke-width:10;stroke-miterlimit:10;}
	.st47{fill:#00FF77;}
	.st48{fill:#FDF851;}
	.st49{fill:#FC5F5B;}
	.st50{fill:#D275FF;}
	.st51{fill:#846BFF;}
	.st52{clip-path:url(#SVGID_23_);fill:#21B1F9;}
	.st53{clip-path:url(#SVGID_23_);fill:#F5AF33;}
	.st54{clip-path:url(#SVGID_23_);fill:url(#SVGID_24_);}
	.st55{fill:#70E5C4;}
	.st56{fill:#5090F1;}
	.st57{fill:url(#SVGID_25_);}
	.st58{fill:url(#SVGID_26_);}
</style>
<g>
	
		<rect x="25.4" y="10.8" transform="matrix(-1.836970e-16 1 -1 -1.836970e-16 59.7796 8.7347)" class="st6" width="0.2" height="47"/>
	
		<rect x="25.4" y="20.3" transform="matrix(-1.836970e-16 1 -1 -1.836970e-16 69.298 18.2531)" class="st1" width="0.2" height="47"/>
	
		<rect x="25.4" y="-8.3" transform="matrix(-1.836970e-16 1 -1 -1.836970e-16 40.7429 -10.302)" class="st6" width="0.2" height="47"/>
	<polygon class="st6" points="1.8,6 1.8,5.9 48.8,5.8 48.8,5.9 	"/>
	
		<rect x="25.4" y="1.3" transform="matrix(-1.836970e-16 1 -1 -1.836970e-16 50.2612 -0.7837)" class="st6" width="0.2" height="47"/>
	<rect x="1" y="5.7" class="st1" width="1" height="38.6"/>
	<rect x="25" y="20.3" transform="matrix(-1.836970e-16 1 -1 -1.836970e-16 69.298 18.2531)" class="st1" width="1" height="47"/>
	<polyline class="st2" points="6.6,31.7 16.5,21.9 32.1,29.5 45.8,14.3 	"/>
	<path class="st0" d="M46.6,14.9c0,0.7-0.6,1.3-1.3,1.3c-0.7,0-1.3-0.6-1.3-1.3c0-0.7,0.6-1.3,1.3-1.3c0.3,0,0.6,0.1,0.8,0.3
		C46.4,14,46.6,14.4,46.6,14.9z"/>
	<path class="st7" d="M7.9,31.7c0,0.7-0.6,1.3-1.3,1.3c-0.7,0-1.3-0.6-1.3-1.3c0-0.7,0.6-1.3,1.3-1.3c0.3,0,0.6,0.1,0.8,0.3
		C7.7,30.8,7.9,31.2,7.9,31.7z"/>
</g>
</svg>
