<?xml version="1.0" encoding="utf-8"?>
<!-- Generator: Adobe Illustrator 24.0.0, SVG Export Plug-In . SVG Version: 6.00 Build 0)  -->
<svg version="1.1" id="图层_1" xmlns="http://www.w3.org/2000/svg" xmlns:xlink="http://www.w3.org/1999/xlink" x="0px" y="0px"
	 viewBox="0 0 50 50" style="enable-background:new 0 0 50 50;" xml:space="preserve">
<style type="text/css">
	.st0{fill:#4090F7;}
	.st1{fill:#CFD6E2;}
	.st2{fill:none;stroke:#4090F7;stroke-miterlimit:10;}
	.st3{fill:#FFFFFF;}
	.st4{fill:url(#SVGID_1_);}
	.st5{fill:url(#SVGID_2_);}
	.st6{fill:#EFEFEF;}
	.st7{fill:#4090F6;}
	.st8{fill:url(#SVGID_3_);}
	.st9{fill:none;}
	.st10{clip-path:url(#SVGID_5_);fill:#21B1F9;}
	.st11{clip-path:url(#SVGID_5_);fill:#EC6B33;}
	.st12{clip-path:url(#SVGID_5_);fill:#F5AF33;}
	.st13{clip-path:url(#SVGID_7_);fill:#21B1F9;}
	.st14{clip-path:url(#SVGID_7_);fill:#F5AF33;}
	.st15{clip-path:url(#SVGID_7_);fill:url(#SVGID_8_);}
	.st16{fill:#AABBCC;}
	.st17{fill:#76F0D0;}
	.st18{fill:#F5AF33;}
	.st19{opacity:0.5;fill:#4090F7;}
	.st20{opacity:0.4;fill:#4090F7;}
	.st21{opacity:0.3;fill:#4090F7;}
	.st22{opacity:0.6;fill:#4090F7;}
	.st23{opacity:0.7;}
	.st24{opacity:0.7;fill:#4090F7;}
	.st25{opacity:0.7;fill:#21B1F9;}
	.st26{fill:#E8E8E8;}
	.st27{clip-path:url(#SVGID_10_);fill:#21B1F9;}
	.st28{clip-path:url(#SVGID_10_);fill:#EC6B33;}
	.st29{clip-path:url(#SVGID_10_);fill:#F5AF33;}
	.st30{clip-path:url(#SVGID_12_);}
	.st31{fill:#21B1F9;}
	.st32{fill:#EC6B33;}
	.st33{clip-path:url(#SVGID_14_);}
	.st34{clip-path:url(#SVGID_16_);fill:#F5AF33;}
	.st35{clip-path:url(#SVGID_16_);fill:url(#SVGID_17_);}
	.st36{clip-path:url(#SVGID_16_);fill:#21B1F9;}
	.st37{clip-path:url(#SVGID_19_);fill:#F5AF33;}
	.st38{clip-path:url(#SVGID_19_);fill:url(#SVGID_20_);}
	.st39{clip-path:url(#SVGID_19_);fill:#21B1F9;}
	.st40{fill:#92C5FC;}
	.st41{fill:url(#SVGID_21_);}
	.st42{fill:#87B2EF;}
	.st43{fill:none;stroke:#D9EAFF;stroke-width:0.25;stroke-miterlimit:10;}
	.st44{fill:#4090F7;stroke:#4090F7;stroke-width:0.25;stroke-miterlimit:10;}
	.st45{fill:#FFFFFF;stroke:#B8B8B8;stroke-width:0.5;stroke-miterlimit:10;}
	.st46{fill:#FFFFFF;stroke:#4090F7;stroke-width:10;stroke-miterlimit:10;}
	.st47{fill:#00FF77;}
	.st48{fill:#FDF851;}
	.st49{fill:#FC5F5B;}
	.st50{fill:#D275FF;}
	.st51{fill:#846BFF;}
	.st52{clip-path:url(#SVGID_23_);fill:#21B1F9;}
	.st53{clip-path:url(#SVGID_23_);fill:#F5AF33;}
	.st54{clip-path:url(#SVGID_23_);fill:url(#SVGID_24_);}
	.st55{fill:#70E5C4;}
	.st56{fill:#5090F1;}
	.st57{fill:url(#SVGID_25_);}
	.st58{fill:url(#SVGID_26_);}
</style>
<g>
	<g>
		<defs>
			<path id="SVGID_6_" d="M-40.4,5.4c-12.3,0-22.3,10-22.3,22.3S-52.8,50-40.4,50c12.3,0,22.3-10,22.3-22.3S-28.1,5.4-40.4,5.4z
				 M-40.4,37.5c-5.4,0-9.8-4.4-9.8-9.8s4.4-9.8,9.8-9.8c5.4,0,9.8,4.4,9.8,9.8S-35,37.5-40.4,37.5z"/>
		</defs>
		<clipPath id="SVGID_1_">
			<use xlink:href="#SVGID_6_"  style="overflow:visible;"/>
		</clipPath>
		<polygon style="clip-path:url(#SVGID_1_);fill:#F5AF33;" points="21.2,43.8 -16.2,40.3 -40.1,28.7 -10.6,18.9 21.2,21.3 		"/>
	</g>
</g>
<g>
	<path class="st16" d="M26.9,28c0,0.8-0.7,1.4-1.6,1.4c-0.9,0-1.6-0.6-1.6-1.4c0-0.8,1.6-11.4,1.6-11.4S26.9,27.3,26.9,28z"/>
	<g>
		<defs>
			<path id="SVGID_15_" d="M36.4,37c-0.2,0-0.4-0.1-0.6-0.2c-0.4-0.4-0.5-1-0.2-1.5c1.8-2.2,2.7-4.9,2.7-7.8
				c0-6.9-5.6-12.6-12.6-12.6c-6.9,0-12.6,5.6-12.6,12.6c0,2.9,0.9,5.5,2.7,7.8c0.4,0.4,0.3,1.1-0.2,1.5c-0.4,0.4-1.1,0.3-1.5-0.2
				c-2.1-2.6-3.1-5.7-3.1-9.1c0-8.1,6.6-14.7,14.7-14.7c8.1,0,14.7,6.6,14.7,14.7c0,3.3-1.1,6.5-3.1,9.1C37,36.8,36.7,37,36.4,37z"
				/>
		</defs>
		<clipPath id="SVGID_2_">
			<use xlink:href="#SVGID_15_"  style="overflow:visible;"/>
		</clipPath>
		<polygon style="clip-path:url(#SVGID_2_);fill:#F5AF33;" points="49.1,43.3 32.5,44.7 18.2,40.3 20.7,26.2 37.4,21.6 49.1,21.3 		
			"/>
		
			<linearGradient id="SVGID_3_" gradientUnits="userSpaceOnUse" x1="3.2985" y1="102.3912" x2="34.0181" y2="102.3912" gradientTransform="matrix(0.9705 -0.2787 0.2903 1.0108 -39.913 -69.4915)">
			<stop  offset="0" style="stop-color:#6BDBBA"/>
			<stop  offset="1" style="stop-color:#79F6D6"/>
		</linearGradient>
		<polygon style="clip-path:url(#SVGID_2_);fill:url(#SVGID_3_);" points="25.5,33.8 -2.7,48.1 -10.7,17.9 20.6,23.4 		"/>
		<polygon style="clip-path:url(#SVGID_2_);fill:#21B1F9;" points="48.6,21.8 25.7,29 0.1,24 0.1,2.4 48.1,2.4 		"/>
	</g>
	<g>
		<defs>
			<path id="SVGID_18_" d="M41.3,42.4c-0.4,0-0.9-0.1-1.3-0.4c-0.9-0.7-1.1-2-0.3-2.9c2.5-3.2,3.9-7.1,3.9-11.2
				c0-10-8.2-18.2-18.2-18.2S7.2,17.8,7.2,27.8c0,4.1,1.3,8,3.9,11.2c0.7,0.9,0.6,2.2-0.3,2.9c-0.9,0.7-2.2,0.6-2.9-0.3
				c-3.1-4-4.8-8.7-4.8-13.8c0-12.3,10-22.3,22.3-22.3s22.3,10,22.3,22.3c0,5.1-1.7,9.8-4.8,13.8C42.5,42.1,41.9,42.4,41.3,42.4z"/>
		</defs>
		<clipPath id="SVGID_5_">
			<use xlink:href="#SVGID_18_"  style="overflow:visible;"/>
		</clipPath>
		<polygon class="st12" points="49.1,43.3 32.5,44.7 18.2,40.3 20.7,26.2 37.4,21.6 49.1,21.3 		"/>
		
			<linearGradient id="SVGID_7_" gradientUnits="userSpaceOnUse" x1="1.4224" y1="104.3616" x2="34.0181" y2="104.3616" gradientTransform="matrix(0.9705 -0.2787 0.2903 1.0108 -39.913 -69.4915)">
			<stop  offset="0" style="stop-color:#6BDBBA"/>
			<stop  offset="1" style="stop-color:#79F6D6"/>
		</linearGradient>
		<polygon style="clip-path:url(#SVGID_5_);fill:url(#SVGID_7_);" points="25.5,33.8 -2.7,48.1 -12,22.6 20.5,20.9 		"/>
		<polygon class="st10" points="49.5,23.7 25.4,29.4 -0.5,25.4 0.1,2.1 48.2,2.1 		"/>
	</g>
</g>
</svg>
