<?xml version="1.0" encoding="utf-8"?>
<!-- Generator: Adobe Illustrator 24.0.0, SVG Export Plug-In . SVG Version: 6.00 Build 0)  -->
<svg version="1.1" id="图层_1" xmlns="http://www.w3.org/2000/svg" xmlns:xlink="http://www.w3.org/1999/xlink" x="0px" y="0px"
	 viewBox="0 0 50 50" style="enable-background:new 0 0 50 50;" xml:space="preserve">
<style type="text/css">
	.st0{fill:#4090F7;}
	.st1{fill:#CFD6E2;}
	.st2{fill:none;stroke:#4090F7;stroke-miterlimit:10;}
	.st3{fill:#FFFFFF;}
	.st4{fill:url(#SVGID_1_);}
	.st5{fill:url(#SVGID_2_);}
	.st6{fill:#EFEFEF;}
	.st7{fill:#4090F6;}
	.st8{fill:url(#SVGID_3_);}
	.st9{fill:none;}
	.st10{clip-path:url(#SVGID_5_);fill:#21B1F9;}
	.st11{clip-path:url(#SVGID_5_);fill:#EC6B33;}
	.st12{clip-path:url(#SVGID_5_);fill:#F5AF33;}
	.st13{clip-path:url(#SVGID_7_);fill:#21B1F9;}
	.st14{clip-path:url(#SVGID_7_);fill:#F5AF33;}
	.st15{clip-path:url(#SVGID_7_);fill:url(#SVGID_8_);}
	.st16{fill:#AABBCC;}
	.st17{fill:#76F0D0;}
	.st18{fill:#F5AF33;}
	.st19{opacity:0.5;fill:#4090F7;}
	.st20{opacity:0.4;fill:#4090F7;}
	.st21{opacity:0.3;fill:#4090F7;}
	.st22{opacity:0.6;fill:#4090F7;}
	.st23{opacity:0.7;}
	.st24{opacity:0.7;fill:#4090F7;}
	.st25{opacity:0.7;fill:#21B1F9;}
	.st26{fill:#E8E8E8;}
	.st27{clip-path:url(#SVGID_10_);fill:#21B1F9;}
	.st28{clip-path:url(#SVGID_10_);fill:#EC6B33;}
	.st29{clip-path:url(#SVGID_10_);fill:#F5AF33;}
	.st30{clip-path:url(#SVGID_12_);}
	.st31{fill:#21B1F9;}
	.st32{fill:#EC6B33;}
	.st33{clip-path:url(#SVGID_14_);}
	.st34{clip-path:url(#SVGID_16_);fill:#F5AF33;}
	.st35{clip-path:url(#SVGID_16_);fill:url(#SVGID_17_);}
	.st36{clip-path:url(#SVGID_16_);fill:#21B1F9;}
	.st37{clip-path:url(#SVGID_19_);fill:#F5AF33;}
	.st38{clip-path:url(#SVGID_19_);fill:url(#SVGID_20_);}
	.st39{clip-path:url(#SVGID_19_);fill:#21B1F9;}
	.st40{fill:#92C5FC;}
	.st41{fill:url(#SVGID_21_);}
	.st42{fill:#87B2EF;}
	.st43{fill:none;stroke:#D9EAFF;stroke-width:0.25;stroke-miterlimit:10;}
	.st44{fill:#4090F7;stroke:#4090F7;stroke-width:0.25;stroke-miterlimit:10;}
	.st45{fill:#FFFFFF;stroke:#B8B8B8;stroke-width:0.5;stroke-miterlimit:10;}
	.st46{fill:#FFFFFF;stroke:#4090F7;stroke-width:10;stroke-miterlimit:10;}
	.st47{fill:#00FF77;}
	.st48{fill:#FDF851;}
	.st49{fill:#FC5F5B;}
	.st50{fill:#D275FF;}
	.st51{fill:#846BFF;}
	.st52{clip-path:url(#SVGID_23_);fill:#21B1F9;}
	.st53{clip-path:url(#SVGID_23_);fill:#F5AF33;}
	.st54{clip-path:url(#SVGID_23_);fill:url(#SVGID_24_);}
	.st55{fill:#70E5C4;}
	.st56{fill:#5090F1;}
	.st57{fill:url(#SVGID_25_);}
	.st58{fill:url(#SVGID_26_);}
</style>
<g>
	<path class="st0" d="M25,2.9c12.5,0,22.6,10.1,22.6,22.6S37.5,48.1,25,48.1S2.4,38,2.4,25.5S12.5,2.9,25,2.9z M25,5.1
		c-11.3,0-20.5,9.2-20.5,20.5S13.7,46,25,46s20.5-9.2,20.5-20.5S36.3,5.1,25,5.1z"/>
	<path class="st40" d="M24.1,31.8c-6.4-4.1-17-1.3-16.5,0.2C10.2,38.9,17,43.8,25,43.8c7.7,0,14.3-4.5,17-11
		C42.8,31.1,30.6,35.9,24.1,31.8L24.1,31.8z"/>
	<g>
		<g>
			<path class="st0" d="M23.3,15.7c0,2.5-1.2,4.6-3.8,4.6c-2.4,0-3.7-1.9-3.7-4.5c0-2.4,1.3-4.6,3.7-4.6
				C21.9,11.2,23.3,13,23.3,15.7z M17.2,15.7c0,1.9,0.8,3.2,2.4,3.2c1.5,0,2.3-1.3,2.3-3.2c0-2-0.9-3.2-2.4-3.2
				C18.2,12.5,17.2,13.7,17.2,15.7z M19.1,27.4l10-15.9h1.5l-10,15.9H19.1z M33.9,23.2c0,2.5-1.2,4.6-3.8,4.6c-2.4,0-3.7-2-3.7-4.5
				c0-2.4,1.2-4.6,3.7-4.6C32.5,18.6,33.9,20.4,33.9,23.2z M27.8,23.2c0,1.9,0.8,3.2,2.4,3.2c1.5,0,2.3-1.3,2.3-3.2
				c0-1.9-0.9-3.2-2.4-3.2C28.8,20,27.8,21.2,27.8,23.2z"/>
		</g>
	</g>
</g>
</svg>
